<?xml version="1.0" encoding="utf-8"?>
<!-- Generator: Adobe Illustrator 19.1.0, SVG Export Plug-In . SVG Version: 6.00 Build 0)  -->
<svg version="1.1" id="Layer_1" xmlns="http://www.w3.org/2000/svg" xmlns:xlink="http://www.w3.org/1999/xlink" x="0px" y="0px"
	 viewBox="0 0 76.8 67.4" style="enable-background:new 0 0 76.8 67.4;" xml:space="preserve">
<style type="text/css">
	.st0{fill:#043673;}
	.st1{fill:#FFFFFF;}
	.st2{clip-path:url(#SVGID_2_);fill:#FFFFFF;}
	.st3{clip-path:url(#SVGID_2_);fill:#96CA4F;}
	.st4{clip-path:url(#SVGID_2_);fill:#043673;}
	.st5{fill:#203A70;}
	.st6{display:none;}
	.st7{display:inline;}
	.st8{fill:none;stroke:#203A70;stroke-width:3;stroke-miterlimit:10;}
	.st9{fill:none;stroke:#FFFFFF;stroke-width:3;stroke-miterlimit:10;}
	.st10{fill:#181617;}
	.st11{fill:#D8D4B3;}
	.st12{fill:none;stroke:#D8D4B3;stroke-width:2;stroke-miterlimit:10;}
	.st13{fill:#545554;}
	.st14{display:inline;fill:#D8D4B3;}
	.st15{fill:none;stroke:#D8D4B3;stroke-width:3;stroke-miterlimit:10;}
</style>
<g id="Layer_1_1_">
	<g>
		<circle class="st10" cx="41.6" cy="37.8" r="28.8"/>
		<g>
			<path class="st11" d="M41.6,9.9c15.5,0,28,12.5,28,28s-12.5,28-28,28s-28-12.5-28-28S26.1,9.9,41.6,9.9 M41.6,8.3
				C25.3,8.3,12,21.5,12,37.8s13.3,29.6,29.6,29.6s29.6-13.3,29.6-29.6S57.9,8.3,41.6,8.3L41.6,8.3z"/>
		</g>
	</g>
	<g>
		<g>
			<path class="st12" d="M25.9,41.9H35c1.6,0,2.9,1.3,2.9,2.9V54"/>
			<path class="st12" d="M37.7,21.5v9.1c0,1.6-1.3,2.9-2.9,2.9h-9.1"/>
			<path class="st12" d="M57.5,33.3h-9.1c-1.6,0-2.9-1.3-2.9-2.9v-9.1"/>
			<path class="st12" d="M45.7,53.7v-9.1c0-1.6,1.3-2.9,2.9-2.9h9.1"/>
		</g>
	</g>
</g>
</svg>
