<?xml version="1.0" encoding="utf-8"?>
<!-- Generator: Adobe Illustrator 19.1.0, SVG Export Plug-In . SVG Version: 6.00 Build 0)  -->
<svg version="1.1" id="Layer_1" xmlns="http://www.w3.org/2000/svg" xmlns:xlink="http://www.w3.org/1999/xlink" x="0px" y="0px"
	 viewBox="0 0 80.2 74" style="enable-background:new 0 0 80.2 74;" xml:space="preserve">
<style type="text/css">
	.st0{fill:#043673;}
	.st1{fill:#FFFFFF;}
	.st2{clip-path:url(#SVGID_2_);fill:#FFFFFF;}
	.st3{clip-path:url(#SVGID_2_);fill:#96CA4F;}
	.st4{clip-path:url(#SVGID_2_);fill:#043673;}
	.st5{fill:#203A70;}
	.st6{display:none;}
	.st7{display:inline;}
	.st8{fill:none;stroke:#203A70;stroke-width:3;stroke-miterlimit:10;}
	.st9{fill:none;stroke:#FFFFFF;stroke-width:3;stroke-miterlimit:10;}
	.st10{fill:#181617;}
	.st11{fill:#D8D4B3;}
	.st12{fill:none;stroke:#D8D4B3;stroke-width:2;stroke-miterlimit:10;}
	.st13{fill:#545554;}
	.st14{display:inline;fill:#D8D4B3;}
	.st15{fill:none;stroke:#D8D4B3;stroke-width:3;stroke-miterlimit:10;}
</style>
<g id="Layer_1_10_">
	<g>
		<circle class="st13" cx="42.4" cy="37.8" r="28.8"/>
		<g class="st6">
			<path class="st14" d="M42.4,9.9c15.5,0,28,12.5,28,28s-12.5,28-28,28s-28-12.5-28-28S26.9,9.9,42.4,9.9 M42.4,8.3
				c-16.3,0-29.6,13.3-29.6,29.6s13.3,29.6,29.6,29.6S72,54.1,72,37.8S58.7,8.3,42.4,8.3L42.4,8.3z"/>
		</g>
	</g>
	<g>
		<g>
			<path class="st12" d="M26.7,41.9h9.1c1.6,0,2.9,1.3,2.9,2.9V54"/>
			<path class="st12" d="M38.5,21.5v9.1c0,1.6-1.3,2.9-2.9,2.9h-9.1"/>
			<path class="st12" d="M58.3,33.3h-9.1c-1.6,0-2.9-1.3-2.9-2.9v-9.1"/>
			<path class="st12" d="M46.5,53.7v-9.1c0-1.6,1.3-2.9,2.9-2.9h9.1"/>
		</g>
	</g>
</g>
</svg>
