<?xml version="1.0" encoding="utf-8"?>
<!-- Generator: Adobe Illustrator 19.1.0, SVG Export Plug-In . SVG Version: 6.00 Build 0)  -->
<svg version="1.1" id="Layer_1" xmlns="http://www.w3.org/2000/svg" xmlns:xlink="http://www.w3.org/1999/xlink" x="0px" y="0px"
	 viewBox="0 0 71.2 72" style="enable-background:new 0 0 71.2 72;" xml:space="preserve">
<style type="text/css">
	.st0{fill:#043673;}
	.st1{fill:#FFFFFF;}
	.st2{clip-path:url(#SVGID_2_);fill:#FFFFFF;}
	.st3{clip-path:url(#SVGID_2_);fill:#96CA4F;}
	.st4{clip-path:url(#SVGID_2_);fill:#043673;}
	.st5{fill:#203A70;}
	.st6{display:none;}
	.st7{display:inline;}
	.st8{fill:none;stroke:#203A70;stroke-width:3;stroke-miterlimit:10;}
	.st9{fill:none;stroke:#FFFFFF;stroke-width:3;stroke-miterlimit:10;}
	.st10{fill:#181617;}
	.st11{fill:#D8D4B3;}
	.st12{fill:none;stroke:#D8D4B3;stroke-width:2;stroke-miterlimit:10;}
	.st13{fill:#545554;}
	.st14{display:inline;fill:#D8D4B3;}
	.st15{fill:none;stroke:#D8D4B3;stroke-width:3;stroke-miterlimit:10;}
</style>
<g id="Layer_1_11_">
	<g>
		<circle class="st13" cx="36.1" cy="38.1" r="28.8"/>
		<g class="st6">
			<path class="st14" d="M36.1,10.1c15.5,0,28,12.5,28,28s-12.5,28-28,28s-28-12.5-28-28S20.6,10.1,36.1,10.1 M36.1,8.5
				C19.8,8.5,6.5,21.8,6.5,38.1s13.3,29.6,29.6,29.6s29.6-13.3,29.6-29.6S52.4,8.5,36.1,8.5L36.1,8.5z"/>
		</g>
	</g>
	<g class="st6">
		<g class="st7">
			<path class="st12" d="M20.3,42.2h9.1c1.6,0,2.9,1.3,2.9,2.9v9.1"/>
			<path class="st12" d="M32.1,21.8v9.1c0,1.6-1.3,2.9-2.9,2.9h-9.1"/>
			<path class="st12" d="M52,33.6h-9.1c-1.6,0-2.9-1.3-2.9-2.9v-9.1"/>
			<path class="st12" d="M40.2,54v-9.1c0-1.6,1.3-2.9,2.9-2.9h9.1"/>
		</g>
	</g>
</g>
<g>
	<g>
		<path class="st15" d="M32.7,51.5h-7.6c-1.3,0-2.5-1.1-2.5-2.5v-7.6"/>
		<path class="st15" d="M23.1,34.6V27c0-1.3,1.1-2.5,2.5-2.5h7.4"/>
		<path class="st15" d="M39.4,24.7H47c1.3,0,2.5,1.1,2.5,2.5v7.6"/>
		<path class="st15" d="M49,41.6v7.6c0,1.3-1.1,2.5-2.5,2.5h-7.4"/>
	</g>
</g>
</svg>
