<?xml version="1.0" encoding="utf-8"?>
<!-- Generator: Adobe Illustrator 19.1.0, SVG Export Plug-In . SVG Version: 6.00 Build 0)  -->
<svg version="1.1" id="Layer_1" xmlns="http://www.w3.org/2000/svg" xmlns:xlink="http://www.w3.org/1999/xlink" x="0px" y="0px"
	 viewBox="0 0 81.4 76" style="enable-background:new 0 0 81.4 76;" xml:space="preserve">
<style type="text/css">
	.st0{fill:#043673;}
	.st1{fill:#FFFFFF;}
	.st2{clip-path:url(#SVGID_2_);fill:#FFFFFF;}
	.st3{clip-path:url(#SVGID_2_);fill:#96CA4F;}
	.st4{clip-path:url(#SVGID_2_);fill:#043673;}
	.st5{fill:#203A70;}
	.st6{display:none;}
	.st7{display:inline;}
	.st8{fill:none;stroke:#203A70;stroke-width:3;stroke-miterlimit:10;}
	.st9{fill:none;stroke:#FFFFFF;stroke-width:3;stroke-miterlimit:10;}
	.st10{fill:#181617;}
	.st11{fill:#D8D4B3;}
	.st12{fill:none;stroke:#D8D4B3;stroke-width:2;stroke-miterlimit:10;}
	.st13{fill:#545554;}
	.st14{display:inline;fill:#D8D4B3;}
	.st15{fill:none;stroke:#D8D4B3;stroke-width:3;stroke-miterlimit:10;}
</style>
<g id="Layer_1_12_">
	<g>
		<circle class="st10" cx="45.5" cy="38.1" r="28.8"/>
		<g>
			<path class="st11" d="M45.5,10.1c15.5,0,28,12.5,28,28s-12.5,28-28,28s-28-12.5-28-28S30,10.1,45.5,10.1 M45.5,8.5
				c-16.3,0-29.6,13.3-29.6,29.6s13.3,29.6,29.6,29.6S75,54.4,75,38.1S61.8,8.5,45.5,8.5L45.5,8.5z"/>
		</g>
	</g>
</g>
<g>
	<g>
		<path class="st15" d="M42.1,51.6h-7.6c-1.3,0-2.5-1.1-2.5-2.5v-7.6"/>
		<path class="st15" d="M32.5,34.8v-7.6c0-1.3,1.1-2.5,2.5-2.5h7.4"/>
		<path class="st15" d="M48.8,24.9h7.6c1.3,0,2.5,1.1,2.5,2.5V35"/>
		<path class="st15" d="M58.5,41.8v7.6c0,1.3-1.1,2.5-2.5,2.5h-7.4"/>
	</g>
</g>
</svg>
