<?xml version="1.0" encoding="utf-8"?>
<!-- Generator: Adobe Illustrator 19.1.0, SVG Export Plug-In . SVG Version: 6.00 Build 0)  -->
<svg version="1.1" id="Layer_1" xmlns="http://www.w3.org/2000/svg" xmlns:xlink="http://www.w3.org/1999/xlink" x="0px" y="0px"
	 viewBox="0 0 75 69.6" style="enable-background:new 0 0 75 69.6;" xml:space="preserve">
<style type="text/css">
	.st0{fill:#043673;}
	.st1{fill:#FFFFFF;}
	.st2{clip-path:url(#SVGID_2_);fill:#FFFFFF;}
	.st3{clip-path:url(#SVGID_2_);fill:#96CA4F;}
	.st4{clip-path:url(#SVGID_2_);fill:#043673;}
	.st5{fill:#203A70;}
	.st6{display:none;}
	.st7{display:inline;}
	.st8{fill:none;stroke:#203A70;stroke-width:3;stroke-miterlimit:10;}
	.st9{fill:none;stroke:#FFFFFF;stroke-width:3;stroke-miterlimit:10;}
	.st10{fill:#181617;}
	.st11{fill:#D8D4B3;}
	.st12{fill:none;stroke:#D8D4B3;stroke-width:2;stroke-miterlimit:10;}
	.st13{fill:#545554;}
	.st14{display:inline;fill:#D8D4B3;}
	.st15{fill:none;stroke:#D8D4B3;stroke-width:3;stroke-miterlimit:10;}
</style>
<g id="Layer_1_18_">
	<g>
		<circle class="st10" cx="38.2" cy="33.9" r="28.8"/>
		<g>
			<path class="st11" d="M38.2,5.9c15.5,0,28,12.5,28,28s-12.5,28-28,28s-28-12.5-28-28S22.7,5.9,38.2,5.9 M38.2,4.3
				C21.9,4.3,8.6,17.6,8.6,33.9s13.3,29.6,29.6,29.6s29.6-13.3,29.6-29.6S54.5,4.3,38.2,4.3L38.2,4.3z"/>
		</g>
	</g>
	<g class="st6">
		<g class="st7">
			<path class="st12" d="M22.5,37.9h9.1c1.6,0,2.9,1.3,2.9,2.9V50"/>
			<path class="st12" d="M34.3,17.6v9.1c0,1.6-1.3,2.9-2.9,2.9h-9.1"/>
			<path class="st12" d="M54.1,29.4H45c-1.6,0-2.9-1.3-2.9-2.9v-9.1"/>
			<path class="st12" d="M42.3,49.7v-9.1c0-1.6,1.3-2.9,2.9-2.9h9.1"/>
		</g>
	</g>
</g>
<g>
	<g>
		<path class="st11" d="M38,52.3c-1.2,0-1.9-0.8-1.9-1.9v-23c0-1.2,0.8-1.9,1.9-1.9c1.2,0,1.9,0.8,1.9,1.9v23
			C39.9,51.5,39.2,52.3,38,52.3z"/>
	</g>
	<g>
		<circle class="st11" cx="38" cy="16.8" r="3.5"/>
	</g>
</g>
</svg>
