<?xml version="1.0" encoding="utf-8"?>
<!-- Generator: Adobe Illustrator 19.1.0, SVG Export Plug-In . SVG Version: 6.00 Build 0)  -->
<svg version="1.1" id="Layer_1" xmlns="http://www.w3.org/2000/svg" xmlns:xlink="http://www.w3.org/1999/xlink" x="0px" y="0px"
	 viewBox="0 0 72.6 69.6" style="enable-background:new 0 0 72.6 69.6;" xml:space="preserve">
<style type="text/css">
	.st0{fill:#043673;}
	.st1{fill:#FFFFFF;}
	.st2{clip-path:url(#SVGID_2_);fill:#FFFFFF;}
	.st3{clip-path:url(#SVGID_2_);fill:#96CA4F;}
	.st4{clip-path:url(#SVGID_2_);fill:#043673;}
	.st5{fill:#203A70;}
	.st6{display:none;}
	.st7{display:inline;}
	.st8{fill:none;stroke:#203A70;stroke-width:3;stroke-miterlimit:10;}
	.st9{fill:none;stroke:#FFFFFF;stroke-width:3;stroke-miterlimit:10;}
	.st10{fill:#181617;}
	.st11{fill:#D8D4B3;}
	.st12{fill:none;stroke:#D8D4B3;stroke-width:2;stroke-miterlimit:10;}
	.st13{fill:#545554;}
	.st14{display:inline;fill:#D8D4B3;}
	.st15{fill:none;stroke:#D8D4B3;stroke-width:3;stroke-miterlimit:10;}
</style>
<g id="Layer_1_17_">
	<g>
		<circle class="st13" cx="36.6" cy="33.9" r="28.8"/>
		<g class="st6">
			<path class="st14" d="M36.6,5.9c15.5,0,28,12.5,28,28s-12.5,28-28,28s-28-12.5-28-28S21.1,5.9,36.6,5.9 M36.6,4.3
				C20.3,4.3,7,17.6,7,33.9s13.3,29.6,29.6,29.6s29.6-13.3,29.6-29.6S52.9,4.3,36.6,4.3L36.6,4.3z"/>
		</g>
	</g>
	<g class="st6">
		<g class="st7">
			<path class="st12" d="M20.9,37.9H30c1.6,0,2.9,1.3,2.9,2.9V50"/>
			<path class="st12" d="M32.7,17.6v9.1c0,1.6-1.3,2.9-2.9,2.9h-9.1"/>
			<path class="st12" d="M52.5,29.4h-9.1c-1.6,0-2.9-1.3-2.9-2.9v-9.1"/>
			<path class="st12" d="M40.7,49.7v-9.1c0-1.6,1.3-2.9,2.9-2.9h9.1"/>
		</g>
	</g>
</g>
<g>
	<g>
		<path class="st11" d="M36.6,51.8c-1.2,0-1.9-0.8-1.9-1.9v-23c0-1.2,0.8-1.9,1.9-1.9c1.2,0,1.9,0.8,1.9,1.9v23
			C38.5,51,37.7,51.8,36.6,51.8z"/>
	</g>
	<g>
		<circle class="st11" cx="36.6" cy="16.3" r="3.5"/>
	</g>
</g>
</svg>
