<?xml version="1.0" encoding="utf-8"?>
<!-- Generator: Adobe Illustrator 19.1.0, SVG Export Plug-In . SVG Version: 6.00 Build 0)  -->
<svg version="1.1" id="Layer_1" xmlns="http://www.w3.org/2000/svg" xmlns:xlink="http://www.w3.org/1999/xlink" x="0px" y="0px"
	 viewBox="0 0 88 78.1" style="enable-background:new 0 0 88 78.1;" xml:space="preserve">
<style type="text/css">
	.st0{fill:#043673;}
	.st1{fill:#FFFFFF;}
	.st2{clip-path:url(#SVGID_2_);fill:#FFFFFF;}
	.st3{clip-path:url(#SVGID_2_);fill:#96CA4F;}
	.st4{clip-path:url(#SVGID_2_);fill:#043673;}
	.st5{fill:#203A70;}
	.st6{display:none;}
	.st7{display:inline;}
	.st8{fill:none;stroke:#203A70;stroke-width:3;stroke-miterlimit:10;}
	.st9{fill:none;stroke:#FFFFFF;stroke-width:3;stroke-miterlimit:10;}
	.st10{fill:#181617;}
	.st11{fill:#D8D4B3;}
	.st12{fill:none;stroke:#D8D4B3;stroke-width:2;stroke-miterlimit:10;}
	.st13{fill:#545554;}
	.st14{display:inline;fill:#D8D4B3;}
	.st15{fill:none;stroke:#D8D4B3;stroke-width:3;stroke-miterlimit:10;}
</style>
<g id="Layer_1_20_">
	<g>
		<circle class="st13" cx="45.6" cy="39.1" r="28.8"/>
		<g class="st6">
			<path class="st14" d="M45.6,11.1c15.5,0,28,12.5,28,28s-12.5,28-28,28s-28-12.5-28-28S30,11.1,45.6,11.1 M45.6,9.5
				C29.3,9.5,16,22.8,16,39.1s13.3,29.6,29.6,29.6s29.6-13.3,29.6-29.6S61.9,9.5,45.6,9.5L45.6,9.5z"/>
		</g>
	</g>
	<g class="st6">
		<g class="st7">
			<path class="st12" d="M29.8,43.1H39c1.6,0,2.9,1.3,2.9,2.9v9.1"/>
			<path class="st12" d="M41.6,22.8v9.1c0,1.6-1.3,2.9-2.9,2.9h-9.1"/>
			<path class="st12" d="M61.5,34.6h-9.1c-1.6,0-2.9-1.3-2.9-2.9v-9.1"/>
			<path class="st12" d="M49.7,54.9v-9.1c0-1.6,1.3-2.9,2.9-2.9h9.1"/>
		</g>
	</g>
</g>
<g>
	<g>
		<path class="st11" d="M31.7,39.8c0-1.3,1.1-2.4,2.4-2.4H57c1.3,0,2.4,1.1,2.4,2.4c0,1.3-1.1,2.4-2.4,2.4H34.1
			C32.8,42.3,31.7,41.1,31.7,39.8z"/>
	</g>
</g>
</svg>
