<?xml version="1.0" encoding="utf-8"?>
<!-- Generator: Adobe Illustrator 19.1.0, SVG Export Plug-In . SVG Version: 6.00 Build 0)  -->
<svg version="1.1" id="Layer_1" xmlns="http://www.w3.org/2000/svg" xmlns:xlink="http://www.w3.org/1999/xlink" x="0px" y="0px"
	 viewBox="0 0 71 66.1" style="enable-background:new 0 0 71 66.1;" xml:space="preserve">
<style type="text/css">
	.st0{fill:#043673;}
	.st1{fill:#FFFFFF;}
	.st2{clip-path:url(#SVGID_2_);fill:#FFFFFF;}
	.st3{clip-path:url(#SVGID_2_);fill:#96CA4F;}
	.st4{clip-path:url(#SVGID_2_);fill:#043673;}
	.st5{fill:#203A70;}
	.st6{display:none;}
	.st7{display:inline;}
	.st8{fill:none;stroke:#203A70;stroke-width:3;stroke-miterlimit:10;}
	.st9{fill:none;stroke:#FFFFFF;stroke-width:3;stroke-miterlimit:10;}
	.st10{fill:#181617;}
	.st11{fill:#D8D4B3;}
	.st12{fill:none;stroke:#D8D4B3;stroke-width:2;stroke-miterlimit:10;}
	.st13{fill:#545554;}
	.st14{display:inline;fill:#D8D4B3;}
	.st15{fill:none;stroke:#D8D4B3;stroke-width:3;stroke-miterlimit:10;}
</style>
<g id="Layer_1_15_">
	<g>
		<circle class="st13" cx="36.6" cy="32" r="28.8"/>
		<g class="st6">
			<path class="st14" d="M36.6,4.1c15.5,0,28,12.5,28,28s-12.5,28-28,28s-28-12.5-28-28S21.1,4.1,36.6,4.1 M36.6,2.5
				C20.3,2.5,7,15.7,7,32s13.3,29.6,29.6,29.6S66.1,48.3,66.1,32S52.9,2.5,36.6,2.5L36.6,2.5z"/>
		</g>
	</g>
	<g class="st6">
		<g class="st7">
			<path class="st12" d="M20.9,36.1H30c1.6,0,2.9,1.3,2.9,2.9v9.1"/>
			<path class="st12" d="M32.7,15.7v9.1c0,1.6-1.3,2.9-2.9,2.9h-9.1"/>
			<path class="st12" d="M52.5,27.5h-9.1c-1.6,0-2.9-1.3-2.9-2.9v-9.1"/>
			<path class="st12" d="M40.7,47.9v-9.1c0-1.6,1.3-2.9,2.9-2.9h9.1"/>
		</g>
	</g>
</g>
<g>
	<g>
		<g>
			<path class="st11" d="M27.3,46.1V18l24,14.2L27.3,46.1z M31.6,25.6v12.9l11-6.3L31.6,25.6z"/>
		</g>
	</g>
</g>
</svg>
