<?xml version="1.0" encoding="utf-8"?>
<!-- Generator: Adobe Illustrator 19.1.0, SVG Export Plug-In . SVG Version: 6.00 Build 0)  -->
<svg version="1.1" id="Layer_1" xmlns="http://www.w3.org/2000/svg" xmlns:xlink="http://www.w3.org/1999/xlink" x="0px" y="0px"
	 viewBox="0 0 71.2 64.3" style="enable-background:new 0 0 71.2 64.3;" xml:space="preserve">
<style type="text/css">
	.st0{fill:#043673;}
	.st1{fill:#FFFFFF;}
	.st2{clip-path:url(#SVGID_2_);fill:#FFFFFF;}
	.st3{clip-path:url(#SVGID_2_);fill:#96CA4F;}
	.st4{clip-path:url(#SVGID_2_);fill:#043673;}
	.st5{fill:#203A70;}
	.st6{display:none;}
	.st7{display:inline;}
	.st8{fill:none;stroke:#203A70;stroke-width:3;stroke-miterlimit:10;}
	.st9{fill:none;stroke:#FFFFFF;stroke-width:3;stroke-miterlimit:10;}
	.st10{fill:#181617;}
	.st11{fill:#D8D4B3;}
	.st12{fill:none;stroke:#D8D4B3;stroke-width:2;stroke-miterlimit:10;}
	.st13{fill:#545554;}
	.st14{display:inline;fill:#D8D4B3;}
	.st15{fill:none;stroke:#D8D4B3;stroke-width:3;stroke-miterlimit:10;}
</style>
<g id="Layer_1_13_">
	<g>
		<circle class="st13" cx="34.5" cy="32" r="28.8"/>
		<g class="st6">
			<path class="st14" d="M34.5,4.1c15.5,0,28,12.5,28,28S50,60,34.5,60s-28-12.5-28-28S19,4.1,34.5,4.1 M34.5,2.5
				C18.2,2.5,4.9,15.8,4.9,32s13.3,29.6,29.6,29.6S64,48.3,64,32S50.8,2.5,34.5,2.5L34.5,2.5z"/>
		</g>
	</g>
	<g class="st6">
		<g class="st7">
			<path class="st12" d="M18.7,36.1h9.1c1.6,0,2.9,1.3,2.9,2.9v9.1"/>
			<path class="st12" d="M30.5,15.7v9.1c0,1.6-1.3,2.9-2.9,2.9h-9.1"/>
			<path class="st12" d="M50.4,27.5h-9.1c-1.6,0-2.9-1.3-2.9-2.9v-9.1"/>
			<path class="st12" d="M38.6,47.9v-9.1c0-1.6,1.3-2.9,2.9-2.9h9.1"/>
		</g>
	</g>
</g>
<g>
	<g>
		<g>
			<path class="st11" d="M28.6,47.1c-1.3,0-2.4-1.1-2.4-2.4V21.8c0-1.3,1.1-2.4,2.4-2.4c1.3,0,2.4,1.1,2.4,2.4v22.8
				C31,46,29.9,47.1,28.6,47.1z"/>
		</g>
	</g>
	<g>
		<g>
			<path class="st11" d="M40.3,47.1c-1.3,0-2.4-1.1-2.4-2.4V21.8c0-1.3,1.1-2.4,2.4-2.4c1.3,0,2.4,1.1,2.4,2.4v22.8
				C42.8,46,41.6,47.1,40.3,47.1z"/>
		</g>
	</g>
</g>
</svg>
