<?xml version="1.0" encoding="utf-8"?>
<!-- Generator: Adobe Illustrator 19.1.0, SVG Export Plug-In . SVG Version: 6.00 Build 0)  -->
<svg version="1.1" id="Layer_1" xmlns="http://www.w3.org/2000/svg" xmlns:xlink="http://www.w3.org/1999/xlink" x="0px" y="0px"
	 viewBox="0 0 66.4 64.3" style="enable-background:new 0 0 66.4 64.3;" xml:space="preserve">
<style type="text/css">
	.st0{fill:#043673;}
	.st1{fill:#FFFFFF;}
	.st2{clip-path:url(#SVGID_2_);fill:#FFFFFF;}
	.st3{clip-path:url(#SVGID_2_);fill:#96CA4F;}
	.st4{clip-path:url(#SVGID_2_);fill:#043673;}
	.st5{fill:#203A70;}
	.st6{display:none;}
	.st7{display:inline;}
	.st8{fill:none;stroke:#203A70;stroke-width:3;stroke-miterlimit:10;}
	.st9{fill:none;stroke:#FFFFFF;stroke-width:3;stroke-miterlimit:10;}
	.st10{fill:#181617;}
	.st11{fill:#D8D4B3;}
	.st12{fill:none;stroke:#D8D4B3;stroke-width:2;stroke-miterlimit:10;}
	.st13{fill:#545554;}
	.st14{display:inline;fill:#D8D4B3;}
	.st15{fill:none;stroke:#D8D4B3;stroke-width:3;stroke-miterlimit:10;}
</style>
<g id="Layer_1_14_">
	<g>
		<circle class="st10" cx="35.3" cy="32" r="28.8"/>
		<g>
			<path class="st11" d="M35.3,4.1c15.5,0,28,12.5,28,28s-12.5,28-28,28s-28-12.5-28-28S19.8,4.1,35.3,4.1 M35.3,2.5
				C19,2.5,5.7,15.8,5.7,32S19,61.6,35.3,61.6S64.8,48.3,64.8,32S51.6,2.5,35.3,2.5L35.3,2.5z"/>
		</g>
	</g>
	<g class="st6">
		<g class="st7">
			<path class="st12" d="M19.5,36.1h9.1c1.6,0,2.9,1.3,2.9,2.9v9.1"/>
			<path class="st12" d="M31.3,15.7v9.1c0,1.6-1.3,2.9-2.9,2.9h-9.1"/>
			<path class="st12" d="M51.2,27.5h-9.1c-1.6,0-2.9-1.3-2.9-2.9v-9.1"/>
			<path class="st12" d="M39.4,47.9v-9.1c0-1.6,1.3-2.9,2.9-2.9h9.1"/>
		</g>
	</g>
</g>
<g>
	<g>
		<g>
			<path class="st11" d="M29.4,45.1c-1.3,0-2.4-1.1-2.4-2.4V19.8c0-1.3,1.1-2.4,2.4-2.4c1.3,0,2.4,1.1,2.4,2.4v22.8
				C31.8,44,30.7,45.1,29.4,45.1z"/>
		</g>
	</g>
	<g>
		<g>
			<path class="st11" d="M41.1,45.1c-1.3,0-2.4-1.1-2.4-2.4V19.8c0-1.3,1.1-2.4,2.4-2.4s2.4,1.1,2.4,2.4v22.8
				C43.6,44,42.4,45.1,41.1,45.1z"/>
		</g>
	</g>
</g>
</svg>
