<?xml version="1.0" encoding="utf-8"?>
<!-- Generator: Adobe Illustrator 19.1.0, SVG Export Plug-In . SVG Version: 6.00 Build 0)  -->
<svg version="1.1" id="Layer_1" xmlns="http://www.w3.org/2000/svg" xmlns:xlink="http://www.w3.org/1999/xlink" x="0px" y="0px"
	 viewBox="-560.7 626.7 45.2 42.2" style="enable-background:new -560.7 626.7 45.2 42.2;" xml:space="preserve">
<style type="text/css">
	.st0{opacity:0.5;fill:#F4D4BE;}
	.st1{fill:#E13826;}
	.st2{fill:none;stroke:#FFFFFF;stroke-miterlimit:10;}
	.st3{fill:#FFFFFF;}
	.st4{fill:#043673;}
</style>
<g id="Layer_1_2_">
	<g>
		<path class="st3" d="M-536.5,668.7c-11.6,0-21-9.4-21-21s9.4-21,21-21s21,9.4,21,21S-524.9,668.7-536.5,668.7z M-536.5,629.7
			c-9.9,0-18,8.1-18,18s8.1,18,18,18l0,0c9.9,0,18-8.1,18-18S-526.5,629.7-536.5,629.7z"/>
	</g>
	<g>
		<g>
			<path class="st3" d="M-536.5,658.3c-0.6,0-1-0.4-1-1v-11.8c0-0.6,0.4-1,1-1s1,0.4,1,1v11.8C-535.5,657.9-535.9,658.3-536.5,658.3
				z"/>
		</g>
		<g>
			<circle class="st3" cx="-536.5" cy="640.1" r="1.8"/>
		</g>
	</g>
</g>
</svg>
