<?xml version="1.0" encoding="utf-8"?>
<!-- Generator: Adobe Illustrator 19.1.0, SVG Export Plug-In . SVG Version: 6.00 Build 0)  -->
<svg version="1.1" id="Layer_1" xmlns="http://www.w3.org/2000/svg" xmlns:xlink="http://www.w3.org/1999/xlink" x="0px" y="0px"
	 viewBox="-388.3 552.1 48.1 49.7" style="enable-background:new -388.3 552.1 48.1 49.7;" xml:space="preserve">
<style type="text/css">
	.st0{opacity:0.5;fill:#F4D4BE;}
	.st1{fill:#E13826;}
	.st2{fill:none;stroke:#FFFFFF;stroke-miterlimit:10;}
	.st3{fill:#FFFFFF;}
	.st4{fill:#043673;}
</style>
<g id="Layer_1_6_">
	<g>
		<g>
			<g>
				<path class="st4" d="M-363.2,598.3c-11.6,0-21-9.4-21-21c0-11.6,9.4-21,21-21s21,9.4,21,21
					C-342.2,588.8-351.6,598.3-363.2,598.3z M-363.2,559.3c-9.9,0-18,8.1-18,18c0,9.9,8.1,18,18,18l0,0c9.9,0,18-8.1,18-18
					C-345.2,567.4-353.3,559.3-363.2,559.3z"/>
			</g>
		</g>
	</g>
	<g>
		<g>
			<g>
				<path class="st4" d="M-368.3,586.8v-19.2l16.4,9.7L-368.3,586.8z M-365.3,572.8v8.8l7.5-4.3L-365.3,572.8z"/>
			</g>
		</g>
	</g>
</g>
</svg>
