<?xml version="1.0" encoding="utf-8"?>
<!-- Generator: Adobe Illustrator 19.1.0, SVG Export Plug-In . SVG Version: 6.00 Build 0)  -->
<svg version="1.1" id="Layer_1" xmlns="http://www.w3.org/2000/svg" xmlns:xlink="http://www.w3.org/1999/xlink" x="0px" y="0px"
	 viewBox="0 0 586 576" style="enable-background:new 0 0 586 576;" xml:space="preserve">
<style type="text/css">
	.st0{fill:#FFFFFF;stroke:#423528;stroke-width:0.5;stroke-miterlimit:10;}
	.st1{fill:#FFFFFF;stroke:#423528;stroke-width:0.25;stroke-miterlimit:10;}
	.st2{fill:#423528;}
	.st3{display:none;}
	.st4{display:inline;}
	.st5{opacity:0.3;}
	.st6{fill:#010101;}
	.st7{font-family:'Arial-BoldMT';}
	.st8{font-size:71.264px;}
</style>
<g id="Compass_1_">
	<g>
		<path class="st0" d="M501.6,282.1c0,105.1-85.2,190.3-190.3,190.3S121,387.2,121,282.1S206.2,91.8,311.3,91.8
			S501.6,177,501.6,282.1z"/>
		<path class="st1" d="M494.9,282.1c0,101.4-82.2,183.6-183.6,183.6c-101.4,0-183.6-82.2-183.6-183.6
			c0-101.4,82.2-183.6,183.6-183.6C412.7,98.5,494.9,180.7,494.9,282.1z"/>
		<path class="st1" d="M466.8,282.1c0,85.9-69.6,155.5-155.5,155.5c-85.9,0-155.5-69.6-155.5-155.5c0-85.9,69.6-155.5,155.5-155.5
			C397.2,126.5,466.8,196.2,466.8,282.1z"/>
		<path class="st1" d="M460.1,282.1c0,82.2-66.6,148.8-148.8,148.8s-148.8-66.6-148.8-148.8c0-82.2,66.6-148.8,148.8-148.8
			S460.1,199.9,460.1,282.1z"/>
		<g>
			<path class="st2" d="M329.2,424.4c-0.9,0-1.7-0.7-1.8-1.6c-0.1-1,0.6-1.9,1.6-2c1-0.1,1.9,0.6,2.1,1.5c0.1,1-0.5,1.9-1.5,2
				l-0.2,0C329.4,424.4,329.3,424.4,329.2,424.4z M340,422.6c-0.8,0-1.6-0.6-1.8-1.4c-0.2-1,0.4-1.9,1.4-2.1l0.2,0
				c1-0.2,1.9,0.4,2.1,1.4c0.2,1-0.4,1.9-1.4,2.1l-0.2,0C340.2,422.6,340.1,422.6,340,422.6z M286,423.2c-0.1,0-0.2,0-0.3,0l-0.2,0
				c-1-0.2-1.6-1.1-1.4-2.1c0.2-1,1.1-1.6,2.1-1.4c1,0.2,1.7,1.1,1.5,2.1C287.5,422.6,286.9,423.2,286,423.2z M350.5,420
				c-0.8,0-1.5-0.5-1.7-1.3c-0.3-0.9,0.3-1.9,1.2-2.2l0.2-0.1c0.9-0.3,1.9,0.3,2.2,1.2c0.3,0.9-0.3,1.9-1.2,2.2l-0.2,0
				C350.9,420,350.7,420,350.5,420z M275.4,420.9c-0.2,0-0.3,0-0.5-0.1l-0.2,0c-1-0.2-1.5-1.2-1.3-2.2c0.2-1,1.2-1.5,2.2-1.3l0.2,0
				c1,0.2,1.5,1.2,1.3,2.2C276.9,420.4,276.2,420.9,275.4,420.9z M360.9,416.6c-0.7,0-1.4-0.4-1.7-1.2c-0.3-0.9,0.1-1.9,1.1-2.3
				c0.9-0.3,2,0.1,2.4,1c0.3,0.9,0,1.9-1,2.3l-0.2,0.1C361.3,416.6,361.1,416.6,360.9,416.6z M265,417.8c-0.2,0-0.4,0-0.6-0.1
				l-0.2-0.1c-0.9-0.3-1.4-1.3-1.1-2.3c0.3-0.9,1.3-1.4,2.3-1.1c0.9,0.3,1.5,1.4,1.2,2.3C266.3,417.3,265.7,417.7,265,417.8z
				 M370.9,412.4c-0.7,0-1.3-0.4-1.6-1c-0.4-0.9,0-2,0.9-2.4c0.9-0.4,2-0.1,2.4,0.8c0.4,0.9,0.1,1.9-0.8,2.3l-0.2,0.1
				C371.4,412.4,371.2,412.4,370.9,412.4z M254.8,413.8c-0.2,0-0.5,0-0.7-0.1l-0.1-0.1c-0.9-0.4-1.3-1.4-0.9-2.3
				c0.4-0.9,1.4-1.3,2.3-0.9l0.2,0.1c0.9,0.4,1.3,1.4,0.9,2.3C256.1,413.4,255.5,413.8,254.8,413.8z M380.6,407.5
				c-0.6,0-1.3-0.3-1.6-0.9c-0.5-0.9-0.2-1.9,0.7-2.4c0.9-0.5,2-0.2,2.5,0.6c0.5,0.9,0.3,1.9-0.6,2.4l-0.2,0.1
				C381.2,407.4,380.9,407.5,380.6,407.5z M245,409.1c-0.3,0-0.6-0.1-0.9-0.2l-0.1-0.1c-0.9-0.5-1.2-1.5-0.8-2.4
				c0.5-0.9,1.5-1.2,2.4-0.8l0.2,0.1c0.9,0.5,1.2,1.5,0.7,2.4C246.2,408.7,245.6,409.1,245,409.1z M389.9,401.8
				c-0.6,0-1.2-0.3-1.5-0.8c-0.6-0.8-0.3-1.9,0.5-2.5c0,0,0.2-0.1,0.2-0.1c0.8-0.5,1.9-0.3,2.5,0.5c0.5,0.8,0.3,1.9-0.5,2.5l-1-1.5
				l0.9,1.6C390.6,401.7,390.2,401.8,389.9,401.8z M235.5,403.6c-0.3,0-0.6-0.1-0.9-0.3l-0.2-0.1c-0.8-0.5-1-1.6-0.5-2.5
				c0.5-0.8,1.6-1,2.5-0.5c0.8,0.5,1.1,1.7,0.6,2.5C236.7,403.3,236.1,403.6,235.5,403.6z M398.7,395.4c-0.5,0-1.1-0.2-1.4-0.7
				c-0.6-0.8-0.5-1.9,0.3-2.5c0,0,0.2-0.1,0.2-0.1c0.8-0.6,1.9-0.5,2.5,0.3c0.6,0.8,0.5,1.9-0.3,2.5l-1.1-1.4l1,1.5
				C399.5,395.3,399.1,395.4,398.7,395.4z M226.6,397.5c-0.4,0-0.8-0.1-1.1-0.3c0,0,0,0,0,0c-0.8-0.6-1-1.7-0.4-2.5
				c0.6-0.8,1.6-1,2.4-0.4c0,0,0.2,0.1,0.2,0.1c0.8,0.6,1,1.7,0.4,2.5C227.6,397.2,227.1,397.5,226.6,397.5z M218,390.6
				c-0.4,0-0.8-0.1-1.1-0.4l-0.2-0.1c-0.7-0.6-0.8-1.8-0.2-2.5c0.7-0.7,1.8-0.8,2.5-0.2c0.8,0.6,0.9,1.8,0.3,2.6
				C219,390.4,218.5,390.6,218,390.6z M422,372.6c-0.4,0-0.8-0.1-1.1-0.4c-0.8-0.6-0.9-1.7-0.3-2.5c0,0,0.1-0.1,0.1-0.2
				c0.6-0.8,1.7-0.9,2.5-0.3c0.8,0.6,0.9,1.7,0.3,2.5l-1.4-1.1l1.3,1.2C423,372.3,422.5,372.6,422,372.6z M202.7,375.1
				c-0.5,0-0.9-0.2-1.3-0.6c0,0-0.1-0.1-0.1-0.2c-0.6-0.8-0.5-1.9,0.2-2.5c0.8-0.6,1.9-0.5,2.5,0.2c0.6,0.8,0.6,1.9-0.2,2.6
				C203.5,375,203.1,375.1,202.7,375.1z M428.5,363.8c-0.3,0-0.7-0.1-1-0.3c-0.8-0.5-1-1.6-0.5-2.5l0.1-0.2c0.6-0.8,1.7-1,2.5-0.4
				c0.8,0.6,1,1.7,0.4,2.5L430,363C429.6,363.5,429.1,363.8,428.5,363.8z M196,366.6c-0.5,0-1-0.2-1.4-0.7c0,0-0.1-0.2-0.1-0.2
				c-0.6-0.8-0.4-1.9,0.4-2.5c0.8-0.6,1.9-0.4,2.5,0.4c0.6,0.8,0.4,2-0.4,2.5C196.7,366.4,196.4,366.6,196,366.6z M434.3,354.6
				c-0.3,0-0.6-0.1-0.9-0.2c-0.9-0.5-1.2-1.6-0.7-2.4l0.1-0.2c0.5-0.8,1.6-1.1,2.4-0.6c0.8,0.5,1.1,1.6,0.6,2.4l-0.1,0.1
				C435.5,354.3,434.9,354.6,434.3,354.6z M190,357.6c-0.6,0-1.2-0.3-1.6-0.9l1.5-0.9l-1.6,0.8c-0.5-0.8-0.3-1.9,0.5-2.5
				c0.8-0.5,1.9-0.3,2.5,0.5c0,0,0.1,0.2,0.1,0.2c0.5,0.8,0.2,1.9-0.6,2.4C190.7,357.5,190.3,357.5,190,357.6z M439.4,345
				c-0.3,0-0.6-0.1-0.8-0.2c-0.9-0.4-1.2-1.5-0.8-2.4c0.4-0.9,1.5-1.3,2.4-0.9c0.9,0.4,1.3,1.4,0.9,2.3L441,344
				C440.7,344.6,440.1,345,439.4,345z M184.6,348c-0.6,0-1.2-0.3-1.5-0.9l-0.1-0.2c-0.4-0.9-0.1-2,0.8-2.4c0.9-0.4,2-0.1,2.4,0.8
				c0.4,0.9,0.1,2-0.7,2.5C185.2,347.9,184.9,348,184.6,348z M443.8,335c-0.2,0-0.5,0-0.7-0.1c-0.9-0.4-1.4-1.4-1-2.3
				c0.4-0.9,1.4-1.4,2.3-1.1c0.9,0.4,1.4,1.3,1,2.2l-0.1,0.2C445.1,334.6,444.5,335,443.8,335z M180,338.1c-0.7,0-1.3-0.4-1.6-1
				c0,0-0.1-0.2-0.1-0.2c-0.4-0.9,0.1-2,1-2.3c0.9-0.4,2,0.1,2.3,1c0.4,0.9-0.1,2-1,2.4C180.5,338.1,180.3,338.1,180,338.1z
				 M447.4,324.7c-0.2,0-0.4,0-0.6-0.1c-0.9-0.3-1.4-1.3-1.1-2.2c0.3-0.9,1.3-1.5,2.2-1.3c0.9,0.3,1.5,1.2,1.2,2.2l-0.1,0.2
				C448.8,324.2,448.1,324.7,447.4,324.7z M176.3,328c-0.8,0-1.5-0.5-1.7-1.2l0-0.1c-0.3-0.9,0.2-1.9,1.1-2.3
				c0.9-0.3,1.9,0.2,2.3,1.1l0.1,0.2c0.3,0.9-0.2,1.9-1.2,2.2C176.7,328,176.5,328,176.3,328z M450.1,314.2c-0.1,0-0.2,0-0.4,0
				c-1-0.2-1.6-1.1-1.4-2.1l0-0.2c0.2-1,1.2-1.6,2.1-1.3c1,0.2,1.6,1.2,1.3,2.1l0,0.1C451.7,313.6,450.9,314.2,450.1,314.2z
				 M173.3,317.5c-0.8,0-1.5-0.5-1.7-1.3l-0.1-0.2c-0.2-1,0.4-1.9,1.3-2.1c1-0.2,1.9,0.4,2.1,1.3c0.2,1-0.3,2-1.3,2.2
				C173.5,317.5,173.4,317.5,173.3,317.5z M452.1,303.5c-0.1,0-0.2,0-0.3,0c-1-0.2-1.6-1.1-1.5-2.1c0.1-1,1-1.7,2-1.6
				c1,0.1,1.7,1,1.5,1.9l0,0.2C453.7,302.9,452.9,303.5,452.1,303.5z M171.1,306.9c-0.9,0-1.6-0.6-1.8-1.5l0-0.1
				c-0.2-1,0.4-1.9,1.4-2.1c1-0.2,1.9,0.4,2.1,1.4l0,0.2c0.2,1-0.5,1.9-1.5,2C171.3,306.9,171.2,306.9,171.1,306.9z M170.5,263.4
				c-0.1,0-0.2,0-0.2,0c-1-0.1-1.7-0.9-1.5-1.9l0-0.2c0.1-1,1-1.7,2-1.5c1,0.1,1.7,1,1.5,2C172.2,262.7,171.4,263.4,170.5,263.4z
				 M451.5,259.8c-0.9,0-1.6-0.6-1.8-1.4l0-0.2c-0.2-1,0.5-1.9,1.5-2c1-0.2,1.9,0.5,2,1.5l0,0.1c0.2,1-0.4,1.9-1.4,2.1
				C451.7,259.8,451.6,259.8,451.5,259.8z M172.4,252.8c-0.1,0-0.3,0-0.4,0c-1-0.2-1.6-1.2-1.3-2.1l0-0.1c0.2-1,1.1-1.6,2.1-1.4
				c1,0.2,1.6,1.1,1.4,2.1l0,0.2C174,252.2,173.2,252.8,172.4,252.8z M449.3,249.1c-0.8,0-1.5-0.5-1.7-1.3l0-0.2
				c-0.2-1,0.3-1.9,1.3-2.2c1-0.2,1.9,0.3,2.2,1.3l0,0.2c0.2,1-0.3,1.9-1.3,2.2C449.6,249.1,449.5,249.1,449.3,249.1z M175.2,242.2
				c-0.2,0-0.3,0-0.5-0.1c-0.9-0.3-1.5-1.2-1.2-2.2l0.1-0.2c0.3-0.9,1.3-1.4,2.2-1.1c0.9,0.3,1.4,1.3,1.1,2.2
				C176.7,241.6,175.9,242.2,175.2,242.2z M446.3,238.6c-0.7,0-1.4-0.5-1.7-1.2l-0.1-0.2c-0.3-0.9,0.2-1.9,1.2-2.2
				c0.9-0.3,1.9,0.2,2.2,1.2l0,0.1c0.3,0.9-0.2,1.9-1.1,2.3C446.7,238.6,446.5,238.6,446.3,238.6z M178.7,231.9
				c-0.2,0-0.5,0-0.7-0.1c-0.9-0.4-1.4-1.4-1-2.3l0-0.1c0.3-0.9,1.4-1.4,2.3-1.1c0.9,0.3,1.4,1.4,1.1,2.3l-0.1,0.2
				C180.1,231.5,179.4,231.9,178.7,231.9z M442.5,228.4c-0.7,0-1.4-0.4-1.7-1.1c-0.4-0.9,0-2,0.9-2.4c0.9-0.4,1.9,0,2.3,0.9l0.1,0.2
				c0.4,0.9,0,2-1,2.3C443,228.4,442.7,228.4,442.5,228.4z M183,221.9c-0.3,0-0.5,0-0.7-0.2c-0.9-0.4-1.3-1.4-0.9-2.3l0.1-0.2
				c0.4-0.9,1.5-1.2,2.4-0.8c0.9,0.4,1.2,1.5,0.8,2.4C184.4,221.4,183.7,221.9,183,221.9z M437.9,218.6c-0.6,0-1.3-0.3-1.6-0.9
				l-0.1-0.2c-0.4-0.9-0.1-2,0.8-2.4c0.9-0.4,1.9-0.1,2.4,0.8l0.1,0.1c0.5,0.9,0.1,1.9-0.7,2.4C438.5,218.5,438.2,218.6,437.9,218.6
				z M188.1,212.3c-0.3,0-0.6-0.1-0.9-0.2c-0.8-0.5-1.1-1.6-0.6-2.4l0.1-0.1c0.5-0.9,1.6-1.2,2.4-0.7c0.9,0.5,1.2,1.6,0.7,2.4
				l-0.1,0.2C189.3,212,188.7,212.3,188.1,212.3z M432.5,209.1c-0.6,0-1.1-0.3-1.5-0.8c0,0-0.1-0.2-0.1-0.2
				c-0.5-0.8-0.3-1.9,0.6-2.5c0.8-0.5,1.9-0.3,2.5,0.6c0,0,0,0.1,0.1,0.1c0.5,0.8,0.3,2-0.5,2.5C433.2,209,432.9,209.1,432.5,209.1z
				 M193.9,203.1c-0.4,0-0.7-0.1-1-0.3c-0.8-0.6-1-1.7-0.4-2.5l0.1-0.1c0.5-0.8,1.7-1,2.5-0.5c0.8,0.5,1,1.6,0.5,2.5l-0.1,0.2
				C195,202.8,194.5,203.1,193.9,203.1z M426.5,200c-0.6,0-1.1-0.3-1.5-0.8c-0.6-0.8-0.4-2,0.4-2.5c0.8-0.6,1.8-0.5,2.4,0.3
				c0,0,0.1,0.2,0.1,0.2c0.6,0.8,0.4,1.9-0.4,2.5C427.2,199.9,426.9,200,426.5,200z M200.4,194.3c-0.4,0-0.8-0.1-1.1-0.4
				c-0.8-0.6-0.9-1.7-0.3-2.5l1.4,1.1l-1.3-1.2c0.6-0.8,1.7-0.9,2.5-0.3c0.8,0.6,0.9,1.7,0.3,2.5c0,0-0.1,0.2-0.1,0.2
				C201.5,194.1,200.9,194.3,200.4,194.3z M419.8,191.5c-0.5,0-1-0.2-1.4-0.6c-0.6-0.8-0.6-1.9,0.2-2.6c0.8-0.6,1.8-0.6,2.4,0.1
				c0,0,0.1,0.1,0.1,0.2c0.6,0.8,0.5,1.9-0.2,2.5C420.6,191.3,420.2,191.5,419.8,191.5z M223.6,171.4c-0.5,0-1.1-0.2-1.4-0.7
				c-0.6-0.8-0.5-1.9,0.3-2.5l1.1,1.4l-1-1.5c0.8-0.6,1.9-0.5,2.5,0.3c0.6,0.8,0.5,1.9-0.3,2.5c0,0-0.2,0.1-0.2,0.1
				C224.4,171.3,224,171.4,223.6,171.4z M396.1,169.2c-0.4,0-0.7-0.1-1.1-0.3l-0.2-0.1c-0.8-0.6-1-1.7-0.4-2.5
				c0.6-0.8,1.7-1,2.5-0.4l0.1,0.1c0.8,0.6,1,1.7,0.4,2.5C397.1,168.9,396.6,169.2,396.1,169.2z M232.4,165c-0.6,0-1.2-0.3-1.5-0.8
				c-0.5-0.8-0.3-1.9,0.5-2.5l0.1-0.1c0.8-0.6,1.9-0.4,2.5,0.4c0.6,0.8,0.4,1.9-0.4,2.5l-0.2,0.1C233.1,164.9,232.8,165,232.4,165z
				 M387.1,163c-0.3,0-0.7-0.1-1-0.3c-0.8-0.5-1.2-1.7-0.6-2.5c0.5-0.8,1.6-1.1,2.4-0.6l0.2,0.1c0.8,0.5,1,1.6,0.5,2.5
				C388.2,162.7,387.6,163,387.1,163z M241.8,159.3c-0.6,0-1.3-0.3-1.6-0.9c-0.5-0.9-0.3-1.9,0.6-2.4l0.2-0.1
				c0.9-0.5,1.9-0.2,2.4,0.7c0.5,0.9,0.2,1.9-0.7,2.4C242.4,159.2,242.1,159.3,241.8,159.3z M377.6,157.5c-0.3,0-0.6-0.1-0.8-0.2
				l-0.2-0.1c-0.9-0.5-1.2-1.5-0.7-2.4c0.5-0.9,1.5-1.2,2.4-0.7l0.1,0.1c0.9,0.5,1.2,1.5,0.8,2.4
				C378.9,157.2,378.3,157.5,377.6,157.5z M251.5,154.3c-0.7,0-1.4-0.4-1.7-1c-0.4-0.9-0.1-1.9,0.8-2.3l0.2-0.1c0.9-0.4,2,0,2.4,0.9
				c0.4,0.9,0,2-0.9,2.4C252,154.2,251.8,154.3,251.5,154.3z M367.8,152.8c-0.2,0-0.5,0-0.7-0.1l-0.2-0.1c-0.9-0.4-1.3-1.4-0.9-2.3
				c0.4-0.9,1.4-1.3,2.3-0.9l0.1,0.1c0.9,0.4,1.3,1.4,0.9,2.3C369.2,152.4,368.5,152.8,367.8,152.8z M261.4,150.2
				c-0.7,0-1.4-0.4-1.7-1.2c-0.3-0.9,0.1-1.9,1-2.3l0.6,1.7l-0.5-1.7c0.9-0.4,2,0.1,2.3,1c0.4,0.9-0.1,2-1,2.3c0,0-0.2,0.1-0.2,0.1
				C261.8,150.1,261.6,150.2,261.4,150.2z M357.7,148.9c-0.2,0-0.4,0-0.6-0.1l-0.2-0.1c-0.9-0.3-1.4-1.3-1.1-2.3
				c0.3-0.9,1.3-1.4,2.3-1.1l0.2,0.1c0.9,0.3,1.4,1.3,1.1,2.3C359.1,148.4,358.4,148.9,357.7,148.9z M271.7,146.7
				c-0.8,0-1.5-0.5-1.7-1.3c-0.3-0.9,0.3-1.9,1.2-2.2l0.1,0c0.9-0.3,1.9,0.3,2.2,1.2c0.3,0.9-0.2,1.9-1.2,2.2l-0.2,0.1
				C272.1,146.7,271.9,146.7,271.7,146.7z M347.2,145.7c-0.2,0-0.3,0-0.5-0.1l-0.2,0c-1-0.2-1.5-1.2-1.3-2.2c0.2-1,1.2-1.5,2.2-1.3
				l0.2,0c1,0.2,1.5,1.2,1.3,2.2C348.7,145.2,348,145.7,347.2,145.7z M282.3,144.1c-0.8,0-1.6-0.6-1.8-1.4c-0.2-1,0.4-1.9,1.4-2.1
				l0.2,0c1-0.2,1.9,0.4,2.1,1.4c0.2,1-0.4,1.9-1.4,2.1l-0.2,0C282.5,144.1,282.4,144.1,282.3,144.1z M336.6,143.4
				c-0.1,0-0.2,0-0.3,0l-0.2,0c-1-0.2-1.6-1.1-1.4-2.1c0.2-1,1.1-1.6,2.1-1.4l0.2,0c1,0.2,1.6,1.1,1.5,2.1
				C338.2,142.8,337.5,143.4,336.6,143.4z"/>
		</g>
		<g>
			<g class="st3">
				<g class="st4">
					<g>
						<polygon class="st1" points="311.3,67.1 311.3,282.4 286.1,235.6 						"/>
					</g>
					<g>
						<polygon class="st2" points="311.3,67.1 311.3,282.4 336.5,235.6 						"/>
					</g>
				</g>
				<g>
					<g class="st4">
						<polygon class="st2" points="311.3,497 311.3,281.8 286.1,328.6 						"/>
					</g>
					<g class="st4">
						<polygon class="st1" points="311.3,497 311.3,281.8 336.5,328.6 						"/>
					</g>
				</g>
			</g>
			<g class="st3">
				<g class="st4">
					<g>
						<polygon class="st1" points="526.2,282.1 311,282.1 357.8,256.9 						"/>
					</g>
					<g>
						<polygon class="st2" points="526.2,282.1 311,282.1 357.8,307.3 						"/>
					</g>
				</g>
				<g class="st4">
					<g>
						<polygon class="st2" points="96.3,282.1 311.6,282.1 264.8,256.9 						"/>
					</g>
					<g>
						<polygon class="st1" points="96.3,282.1 311.6,282.1 264.8,307.3 						"/>
					</g>
				</g>
			</g>
			<g class="st3">
				<g class="st4">
					<g>
						<polygon class="st1" points="421.8,171.5 311.1,282.2 336.5,235.6 						"/>
					</g>
					<g>
						<polygon class="st2" points="421.8,171.6 311.1,282.2 357.8,256.9 						"/>
					</g>
				</g>
				<g class="st4">
					<g>
						<polygon class="st2" points="200.8,392.6 311.4,281.9 264.8,307.3 						"/>
					</g>
					<g>
						<polygon class="st1" points="200.8,392.6 311.4,281.9 286.1,328.6 						"/>
					</g>
				</g>
			</g>
			<g class="st3">
				<g class="st4">
					<g>
						<polygon class="st2" points="200.8,171.5 311.4,282.2 286.1,235.6 						"/>
					</g>
					<g>
						<polygon class="st1" points="200.8,171.6 311.4,282.2 264.8,256.9 						"/>
					</g>
				</g>
				<g class="st4">
					<g>
						<polygon class="st1" points="421.8,392.6 311.1,281.9 357.8,307.3 						"/>
					</g>
					<g>
						<polygon class="st2" points="421.8,392.6 311.1,281.9 336.5,328.6 						"/>
					</g>
				</g>
			</g>
			<circle class="st1" cx="313.3" cy="282.4" r="26.3"/>
			<circle class="st2" cx="313.3" cy="282.4" r="12"/>
		</g>
		<g>
			<g>
				<path class="st2" d="M219.2,156.7c13.7-10,29-17.9,45.6-23.1L252,108.2c-16.4,5.6-31.7,13.4-45.6,23.1L219.2,156.7z"/>
				<path class="st2" d="M403.3,407.5c-13.7,10-29,17.9-45.6,23.1l12.8,25.4c16.4-5.6,31.7-13.4,45.6-23.1L403.3,407.5z"/>
			</g>
			<g>
				<path class="st2" d="M403.3,156.7c-13.7-10-29-17.9-45.6-23.1l12.8-25.4c16.4,5.6,31.7,13.4,45.6,23.1L403.3,156.7z"/>
				<path class="st2" d="M219.2,407.5c13.7,10,29,17.9,45.6,23.1L252,455.9c-16.4-5.6-31.7-13.4-45.6-23.1L219.2,407.5z"/>
			</g>
			<g>
				<path class="st2" d="M463.7,251.3c-3.3-16.6-9.4-32.8-18.2-47.8l26.5-10.1c8.3,15.1,14.4,31.2,18.1,47.8L463.7,251.3z"/>
				<path class="st2" d="M158.8,312.8c3.3,16.6,9.4,32.8,18.2,47.8l-26.5,10.1c-8.3-15.1-14.4-31.2-18.2-47.8L158.8,312.8z"/>
			</g>
			<g>
				<path class="st2" d="M159.7,247.3c3.8-16.5,10.3-32.5,19.4-47.3l-26.3-10.8c-8.7,14.9-15.2,30.8-19.4,47.3L159.7,247.3z"/>
				<path class="st2" d="M462.9,316.9c-3.8,16.5-10.3,32.5-19.4,47.3l26.3,10.8c8.7-14.9,15.2-30.8,19.4-47.3L462.9,316.9z"/>
			</g>
		</g>
	</g>
	<g>
		<text transform="matrix(1 0 0 1 285.5369 58.1514)" class="st6 st7 st8">N</text>
		<text transform="matrix(1 0 0 1 537.2283 298.4659)" class="st6 st7 st8">E</text>
		<text transform="matrix(1 0 0 1 8.4172 298.4659)" class="st6 st7 st8">W</text>
		<text transform="matrix(1 0 0 1 287.5032 563.9112)" class="st6 st7 st8">S</text>
	</g>
	<g class="st5">
		<g>
			<g>
				<g>
					<g>
						<polygon class="st2" points="451.6,140.9 455.1,144.4 463.7,132.4 472.2,120.4 460.2,128.9 448.2,137.4 						"/>
					</g>
				</g>
				<g>
					<g>
						<polygon class="st2" points="428,120.9 432,123.8 438.5,110.6 445,97.4 434.5,107.7 424,118 						"/>
					</g>
				</g>
				<g>
					<g>
						<polygon class="st2" points="507.8,249.5 508.7,254.3 522.6,249.6 536.5,244.8 521.8,244.7 507.1,244.6 						"/>
					</g>
				</g>
				<g>
					<g>
						<polygon class="st2" points="474,397.1 471.2,401.1 484.4,407.6 497.6,414.1 487.2,403.6 476.9,393.1 						"/>
					</g>
				</g>
				<g>
					<g>
						<polygon class="st2" points="400.8,104.4 405.2,106.6 409.5,92.5 413.8,78.5 405.1,90.3 396.4,102.2 						"/>
					</g>
				</g>
				<g>
					<g>
						<polygon class="st2" points="490.3,369.7 488.1,374.1 502.2,378.4 516.2,382.7 504.4,374 492.5,365.3 						"/>
					</g>
				</g>
				<g>
					<g>
						<polygon class="st2" points="372.1,92.7 376.8,94.2 378.9,79.7 380.9,65.1 374.2,78.2 367.4,91.3 						"/>
					</g>
				</g>
				<g>
					<polygon class="st2" points="488,190.1 490.2,194.5 502,185.7 513.8,176.8 499.7,181.3 485.7,185.8 					"/>
				</g>
				<g>
					<g>
						<polygon class="st2" points="341.8,85.6 346.6,86.4 346.4,71.7 346.2,56.9 341.5,70.9 336.9,84.9 						"/>
					</g>
				</g>
				<g>
					<polygon class="st2" points="471.4,163.7 474.3,167.7 484.6,157.1 494.8,146.6 481.7,153.2 468.5,159.8 					"/>
				</g>
				<g>
					<g>
						<polygon class="st2" points="508.5,310.6 507.8,315.4 522.5,315.2 537.2,315 523.3,310.3 509.3,305.7 						"/>
					</g>
				</g>
				<g>
					<g>
						<g>
							<polygon class="st2" points="343.7,478.6 348.6,477.8 348.5,492.5 348.4,507.2 343.6,493.3 338.9,479.4 							"/>
						</g>
					</g>
				</g>
				<g>
					<g>
						<g>
							<polygon class="st2" points="373,471.5 377.7,469.9 379.8,484.5 381.9,499.1 375.1,486 368.3,473 							"/>
						</g>
					</g>
				</g>
				<g>
					<g>
						<g>
							<polygon class="st2" points="373,471.5 377.7,469.9 379.8,484.5 381.9,499.1 375.1,486 368.3,473 							"/>
						</g>
					</g>
				</g>
				<g>
					<g>
						<g>
							<polygon class="st2" points="402.2,459.2 406.6,457 411,471.1 415.4,485.1 406.6,473.3 397.8,461.5 							"/>
						</g>
					</g>
				</g>
				<g>
					<g>
						<g>
							<polygon class="st2" points="402.2,459.2 406.6,457 411,471.1 415.4,485.1 406.6,473.3 397.8,461.5 							"/>
						</g>
					</g>
				</g>
				<g>
					<g>
						<g>
							<polygon class="st2" points="429,442.7 433,439.7 439.6,452.9 446.1,466.1 435.6,455.8 425,445.6 							"/>
						</g>
					</g>
				</g>
				<g>
					<g>
						<polygon class="st2" points="452.6,422.3 456,418.8 464.6,430.8 473.1,442.8 461.1,434.3 449.1,425.8 						"/>
					</g>
				</g>
			</g>
			<g>
				<g>
					<g>
						<polygon class="st2" points="169.3,140.9 165.9,144.4 157.3,132.4 148.8,120.4 160.8,128.9 172.8,137.4 						"/>
					</g>
				</g>
				<g>
					<g>
						<polygon class="st2" points="193,120.9 189,123.8 182.5,110.6 176,97.4 186.5,107.7 197,118 						"/>
					</g>
				</g>
				<g>
					<g>
						<polygon class="st2" points="113.1,249.5 112.4,254.3 98.4,249.6 84.5,244.8 99.2,244.7 113.9,244.6 						"/>
					</g>
				</g>
				<g>
					<g>
						<polygon class="st2" points="147,397.1 149.9,401.1 136.6,407.6 123.4,414.1 133.8,403.6 144.1,393.1 						"/>
					</g>
				</g>
				<g>
					<g>
						<polygon class="st2" points="220.2,104.4 215.8,106.6 211.5,92.5 207.2,78.5 215.9,90.3 224.6,102.2 						"/>
					</g>
				</g>
				<g>
					<g>
						<polygon class="st2" points="130.7,369.7 132.9,374.1 118.8,378.4 104.8,382.7 116.6,374 128.5,365.3 						"/>
					</g>
				</g>
				<g>
					<g>
						<polygon class="st2" points="248.9,92.7 244.2,94.2 242.1,79.7 240.1,65.1 246.8,78.2 253.6,91.3 						"/>
					</g>
				</g>
				<g>
					<polygon class="st2" points="133,190.1 130.8,194.5 119,185.7 107.2,176.8 121.3,181.3 135.3,185.8 					"/>
				</g>
				<g>
					<g>
						<polygon class="st2" points="279.2,85.6 274.4,86.4 274.6,71.7 274.8,56.9 279.5,70.9 284.1,84.9 						"/>
					</g>
				</g>
				<g>
					<polygon class="st2" points="149.6,163.7 146.7,167.7 136.4,157.1 126.2,146.6 139.3,153.2 152.5,159.8 					"/>
				</g>
				<g>
					<g>
						<polygon class="st2" points="112.5,310.6 113.2,315.4 98.5,315.2 83.8,315 97.7,310.3 111.7,305.7 						"/>
					</g>
				</g>
				<g>
					<g>
						<g>
							<polygon class="st2" points="277.3,478.6 272.4,477.8 272.5,492.5 272.6,507.2 277.4,493.3 282.1,479.4 							"/>
						</g>
					</g>
				</g>
				<g>
					<g>
						<g>
							<polygon class="st2" points="248,471.5 243.4,469.9 241.2,484.5 239.1,499.1 245.9,486 252.7,473 							"/>
						</g>
					</g>
				</g>
				<g>
					<g>
						<g>
							<polygon class="st2" points="248,471.5 243.4,469.9 241.2,484.5 239.1,499.1 245.9,486 252.7,473 							"/>
						</g>
					</g>
				</g>
				<g>
					<g>
						<g>
							<polygon class="st2" points="218.8,459.2 214.4,457 210,471.1 205.6,485.1 214.4,473.3 223.2,461.5 							"/>
						</g>
					</g>
				</g>
				<g>
					<g>
						<g>
							<polygon class="st2" points="218.8,459.2 214.4,457 210,471.1 205.6,485.1 214.4,473.3 223.2,461.5 							"/>
						</g>
					</g>
				</g>
				<g>
					<g>
						<g>
							<polygon class="st2" points="192,442.7 188,439.7 181.4,452.9 174.9,466.1 185.4,455.8 196,445.6 							"/>
						</g>
					</g>
				</g>
				<g>
					<g>
						<polygon class="st2" points="168.4,422.3 164.9,418.8 156.4,430.8 147.9,442.8 159.9,434.3 171.9,425.8 						"/>
					</g>
				</g>
			</g>
		</g>
		<g>
			<g>
				<g>
					<polygon class="st2" points="500,218.6 501.4,223.3 514.6,216.8 527.8,210.2 513.2,212 498.6,213.9 					"/>
				</g>
			</g>
			<g>
				<g>
					<polygon class="st2" points="501.8,341 500.3,345.7 514.9,347.6 529.5,349.5 516.4,342.9 503.2,336.3 					"/>
				</g>
			</g>
		</g>
		<g>
			<g>
				<g>
					<polygon class="st2" points="121,218.6 119.5,223.3 106.4,216.8 93.2,210.2 107.8,212 122.4,213.9 					"/>
				</g>
			</g>
			<g>
				<g>
					<polygon class="st2" points="119.2,341 120.7,345.7 106.1,347.6 91.5,349.5 104.6,342.9 117.8,336.3 					"/>
				</g>
			</g>
		</g>
	</g>
</g>
</svg>
