<?xml version="1.0" encoding="utf-8"?>
<!-- Generator: Adobe Illustrator 19.1.0, SVG Export Plug-In . SVG Version: 6.00 Build 0)  -->
<svg version="1.1" id="Layer_1" xmlns="http://www.w3.org/2000/svg" xmlns:xlink="http://www.w3.org/1999/xlink" x="0px" y="0px"
	 viewBox="-195.2 619.8 54.2 54.2" style="enable-background:new -195.2 619.8 54.2 54.2;" xml:space="preserve">
<style type="text/css">
	.st0{opacity:0.5;fill:#F4D4BE;}
	.st1{fill:#E13826;}
	.st2{fill:none;stroke:#FFFFFF;stroke-miterlimit:10;}
	.st3{fill:#FFFFFF;}
	.st4{fill:#043673;}
	.st5{display:none;}
	.st6{display:inline;}
	.st7{fill:none;stroke:#043673;stroke-width:3;stroke-miterlimit:10;}
	.st8{fill:none;stroke:#FFFFFF;stroke-width:3;stroke-miterlimit:10;}
</style>
<g id="Layer_1_8_">
	<g>
		<g>
			<g>
				<path class="st3" d="M-170.1,666c-11.6,0-21-9.4-21-21c0-11.6,9.4-21,21-21c11.6,0,21,9.4,21,21
					C-149.1,656.5-158.5,666-170.1,666z M-170.1,627c-9.9,0-18,8.1-18,18c0,9.9,8.1,18,18,18l0,0c9.9,0,18-8.1,18-18
					C-152.1,635.1-160.2,627-170.1,627z"/>
			</g>
		</g>
	</g>
	<g class="st5">
		<g class="st6">
			<g>
				<path class="st4" d="M-175.2,654.5v-19.2l16.4,9.7L-175.2,654.5z M-172.2,640.5v8.8l7.5-4.3L-172.2,640.5z"/>
			</g>
		</g>
	</g>
</g>
<g>
	<g>
		<path class="st8" d="M-171.6,651.4h-4c-0.7,0-1.3-0.6-1.3-1.3v-4"/>
		<path class="st8" d="M-176.7,642.5v-4c0-0.7,0.6-1.3,1.3-1.3h3.9"/>
		<path class="st8" d="M-168.1,637.4h4c0.7,0,1.3,0.6,1.3,1.3v4"/>
		<path class="st8" d="M-163,646.2v4c0,0.7-0.6,1.3-1.3,1.3h-3.9"/>
	</g>
</g>
</svg>
