<?xml version="1.0" encoding="utf-8"?>
<!-- Generator: Adobe Illustrator 19.1.0, SVG Export Plug-In . SVG Version: 6.00 Build 0)  -->
<svg version="1.1" id="Layer_1" xmlns="http://www.w3.org/2000/svg" xmlns:xlink="http://www.w3.org/1999/xlink" x="0px" y="0px"
	 viewBox="0 0 344.7 150" style="enable-background:new 0 0 344.7 150;" xml:space="preserve">
<style type="text/css">
	.st0{display:none;fill:#043673;}
	.st1{fill:#FFFFFF;}
	.st2{clip-path:url(#SVGID_2_);fill:#FFFFFF;}
	.st3{clip-path:url(#SVGID_2_);fill:#96CA4F;}
	.st4{display:none;clip-path:url(#SVGID_2_);fill:#FFFFFF;}
	.st5{clip-path:url(#SVGID_2_);}
	.st6{fill:#043673;}
	.st7{fill:#96CA4F;}
	.st8{display:none;fill:none;}
</style>
<g>
	<rect x="61.8" y="125.6" class="st6" width="1.6" height="11.2"/>
	<path class="st6" d="M71.9,125.6l7.6,8c0.5,0.6,0.7,0.7,1.2,1.4c-0.1-0.8-0.1-0.9-0.1-1.7v-7.7h1.5v11.2h-1.6l-7.9-8.4
		c-0.4-0.5-0.5-0.6-0.9-1c0.1,0.8,0.1,1,0.1,1.9v7.5h-1.5v-11.2H71.9z"/>
	<path class="st6" d="M89,125.6h5.6c1.3,0,2.8,0,4.3,1.2c0.9,0.7,1.9,2.1,1.9,4.3c0,2.1-0.9,3.4-1.6,4.1c-1.6,1.6-3.8,1.6-5.6,1.6
		H89V125.6z M90.6,127v8.5h3.3c1.4,0,3.2,0,4.3-1.6c0.6-0.8,0.9-1.9,0.9-2.8c0-1.5-0.6-2.5-1.2-3.1c-1.1-1-2.3-1-3.3-1.1H90.6z"/>
	<path class="st6" d="M108.3,125.6v6.6c0,1.3,0.1,2.1,1.1,2.7c0.4,0.3,1.3,0.8,3.1,0.8c1.1,0,2-0.2,2.6-0.5c1.4-0.7,1.4-1.8,1.4-2.7
		v-6.9h1.6v6.7c0,1.1,0,2.7-1.7,3.8c-0.8,0.5-2,1-4,1c-1.5,0-2.9-0.2-4.1-1.1c-1.6-1.1-1.6-2.5-1.6-3.8v-6.6H108.3z"/>
	<path class="st6" d="M125.1,134c0.2,0.2,0.3,0.4,0.8,0.7c1.2,0.8,2.7,1.1,4.2,1.1c2.5,0,3.8-0.9,3.8-2.3c0-1.6-1.8-1.7-4-1.9
		c-2.8-0.2-3.8-0.3-4.6-1.1c-0.7-0.6-0.8-1.3-0.8-1.9c0-3.2,4.2-3.3,5.3-3.3c1.6,0,3.2,0.3,4.5,1.1c0.6,0.4,0.8,0.7,1.1,1.1
		l-1.4,0.6c-0.2-0.2-0.4-0.4-0.7-0.6c-1-0.7-2.2-0.9-3.5-0.9c-0.9,0-2,0.1-2.7,0.5c-0.8,0.4-1,1-1,1.4c0,0.3,0.1,0.6,0.3,0.9
		c0.4,0.4,1,0.5,2,0.7c1,0.1,2,0.2,3,0.3c0.5,0,1,0.1,1.4,0.2c1.2,0.3,2.6,1.1,2.6,2.9c0,0.5-0.1,1.2-0.6,1.9
		c-0.9,1.2-2.6,1.8-4.9,1.8c-0.9,0-2.1-0.1-2.9-0.3c-2.3-0.6-3.1-1.7-3.4-2.2L125.1,134z"/>
	<polygon class="st6" points="139.3,125.6 150.1,125.6 150.1,127 145.5,127 145.5,136.8 143.9,136.8 143.9,127 139.3,127 	"/>
	<path class="st6" d="M155.2,125.6h7.6c1,0,2.2,0,3.1,0.9c0.4,0.3,1,1,1,2.4c0,2.7-2.3,3-3,3.2l4.1,4.7H166l-3.8-4.5h-5.4v4.5h-1.6
		V125.6z M156.7,127v4.1h5.5c0.9,0,2,0,2.6-0.9c0.3-0.4,0.4-0.8,0.4-1.2c0-0.4-0.1-0.9-0.3-1.2c-0.5-0.8-1.3-0.8-2-0.8H156.7z"/>
	<rect x="173.5" y="125.6" class="st6" width="1.6" height="11.2"/>
	<path class="st6" d="M185.8,125.6h1.7l5.7,11.2h-1.8l-1.4-2.8h-6.9l-1.4,2.8H180L185.8,125.6z M186.9,128.1
		c-0.1-0.2-0.2-0.4-0.3-0.6c0-0.1-0.1-0.3-0.1-0.4c0,0.1-0.1,0.3-0.2,0.5c-0.1,0.2-0.2,0.4-0.3,0.6l-2.4,4.6h5.5L186.9,128.1z"/>
	<polygon class="st6" points="198,125.6 199.6,125.6 199.6,135.5 207,135.5 207,136.8 198,136.8 	"/>
	<polygon class="st6" points="221.7,125.6 232,125.6 232,127 223.2,135.5 232.2,135.5 232.2,136.8 221,136.8 221,135.5 229.8,127 
		221.7,127 	"/>
	<path class="st6" d="M250.9,131.4c0,3.8-3.1,5.7-6.7,5.7c-1.6,0-3.3-0.3-4.6-1.2c-1.1-0.8-2.3-2.2-2.3-4.5c0-4.1,3.4-6,6.8-6
		C248,125.4,250.9,127.7,250.9,131.4 M238.9,131.3c0,0.9,0.2,2,1,2.9c1,1.2,2.7,1.6,4.3,1.6c4.1,0,5.1-2.6,5.1-4.5
		c0-3-2.4-4.6-5.4-4.5C241.6,126.8,238.9,128,238.9,131.3"/>
	<path class="st6" d="M258.6,125.6l7.6,8c0.5,0.6,0.6,0.7,1.2,1.4c-0.1-0.8-0.1-0.9-0.1-1.7v-7.7h1.5v11.2h-1.6l-7.9-8.4
		c-0.4-0.5-0.5-0.6-0.9-1c0.1,0.8,0.1,1,0.1,1.9v7.5h-1.5v-11.2H258.6z"/>
	<polygon class="st6" points="275.6,125.6 286,125.6 286,127 277.2,127 277.2,130.4 285.7,130.4 285.7,131.7 277.2,131.7 
		277.2,135.5 286.4,135.5 286.4,136.8 275.6,136.8 	"/>
	<path class="st6" d="M84.3,93.7c-0.1-0.2-0.3-0.4-0.5-0.4h-5.6c-0.1,0-0.3,0.1-0.4,0.2l-10.9,10v-9.6c0-0.3-0.3-0.6-0.6-0.6h-3.8
		c-0.3,0-0.6,0.3-0.6,0.6v21.3c0,0.3,0.3,0.6,0.6,0.6h3.8c0.3,0,0.6-0.3,0.6-0.6v-5l4.7-4.3l7,9.6c0.1,0.2,0.3,0.2,0.5,0.2h4.7
		c0.2,0,0.4-0.1,0.5-0.3c0.1-0.2,0.1-0.4,0-0.6l-8.9-12.3l8.9-8.2C84.3,94.2,84.3,93.9,84.3,93.7 M139.2,102.6
		c0.5-0.9,0.7-1.9,0.7-2.9c0-3.5-2.8-6.3-6.3-6.3h-13.4c-0.3,0-0.6,0.3-0.6,0.6v21.3c0,0.3,0.3,0.6,0.6,0.6h14.5
		c4.1,0,7.4-3.3,7.4-7.4C142,106.2,141,104,139.2,102.6 M124.6,98.3h9.1c0.7,0,1.4,0.6,1.4,1.4c0,0.7-0.6,1.4-1.4,1.4h-9.1V98.3z
		 M134.7,110.8c-0.1,0-0.1,0-0.2,0h-9.9V106h10.1c1.3,0,2.4,1.1,2.4,2.4C137.1,109.7,136,110.8,134.7,110.8 M153.6,93.4h-3.8
		c-0.3,0-0.6,0.3-0.6,0.6v21.3c0,0.3,0.3,0.6,0.6,0.6h3.8c0.3,0,0.6-0.3,0.6-0.6V93.9C154.2,93.6,154,93.4,153.6,93.4 M184.1,93.4
		l-3.8,0c-0.2,0-0.3,0.1-0.4,0.2c-0.1,0.1-0.2,0.3-0.2,0.4v12.4l-16.6-12.8c-0.2-0.1-0.4-0.2-0.6-0.1c-0.2,0.1-0.3,0.3-0.3,0.5v21.2
		c0,0.3,0.3,0.6,0.6,0.6h3.8c0.3,0,0.6-0.3,0.6-0.6V103l16.6,12.8c0.1,0.1,0.2,0.1,0.4,0.1c0.1,0,0.2,0,0.3-0.1
		c0.2-0.1,0.3-0.3,0.3-0.5V94C184.6,93.6,184.4,93.4,184.1,93.4 M212.6,102.6c0.5-0.9,0.7-1.9,0.7-2.9c0-3.5-2.8-6.3-6.3-6.3h-13.4
		c-0.3,0-0.6,0.3-0.6,0.6v21.3c0,0.3,0.3,0.6,0.6,0.6h14.5c4.1,0,7.4-3.3,7.4-7.4C215.5,106.2,214.4,104,212.6,102.6 M198,98.3h9.1
		c0.7,0,1.4,0.6,1.4,1.4c0,0.7-0.6,1.4-1.4,1.4H198V98.3z M208.1,110.8c-0.1,0-0.1,0-0.2,0H198V106h10.1c1.3,0,2.4,1.1,2.4,2.4
		C210.5,109.7,209.4,110.8,208.1,110.8 M244.6,93.4h-3.8c-0.3,0-0.6,0.3-0.6,0.6v10.6c0,3.5-2.8,6.3-6.3,6.3c-3.5,0-6.3-2.8-6.3-6.3
		V93.9c0-0.3-0.3-0.6-0.6-0.6h-3.8c-0.3,0-0.6,0.3-0.6,0.6v10.6c0,6.2,5,11.2,11.2,11.2c6.2,0,11.2-5,11.2-11.2V93.9
		C245.1,93.6,244.9,93.4,244.6,93.4 M273.4,99.7c0-1.7-0.7-3.3-1.8-4.5c-1.2-1.2-2.8-1.8-4.5-1.8h-13.4c-0.3,0-0.6,0.3-0.6,0.6v21.3
		c0,0.3,0.3,0.6,0.6,0.6h3.8c0.3,0,0.6-0.3,0.6-0.6V106h3.2c1.1,0,2.1,0.6,2.7,1.5l4.1,8c0.1,0.2,0.3,0.3,0.5,0.3h4.3
		c0.2,0,0.4-0.1,0.5-0.3c0.1-0.2,0.1-0.4,0-0.6l-4.6-9.2c0.3-0.1,0.7-0.2,1-0.4C272,104.4,273.4,102.2,273.4,99.7 M267.6,101
		c-0.2,0.1-0.3,0.1-0.5,0.1h0l-9.1,0v-2.8h9.1c0.5,0,0.8,0.2,1,0.4c0.1,0.1,0.4,0.4,0.4,1C268.5,100.2,268.1,100.7,267.6,101
		 M285.8,93.4H282c-0.3,0-0.6,0.3-0.6,0.6v21.3c0,0.3,0.3,0.6,0.6,0.6h3.8c0.3,0,0.6-0.3,0.6-0.6V93.9
		C286.4,93.6,286.1,93.4,285.8,93.4 M101.9,93.6c-0.2-0.3-0.8-0.3-1,0L88,114.9c-0.1,0.2-0.1,0.4,0,0.6s0.3,0.3,0.5,0.3h4.8
		c0.2,0,0.4-0.1,0.5-0.3l7.6-12.7l7.6,12.7c0.1,0.2,0.3,0.3,0.5,0.3h4.8c0.2,0,0.4-0.1,0.5-0.3c0.1-0.2,0.1-0.4,0-0.6L101.9,93.6z"
		/>
	<path class="st7" d="M131.4,7.1l-3-0.6l-0.1,3.1c-0.4,22.4,19.6,23.9,19.8,23.9l2.4,0.1l0.3-2.4C150.8,31.1,153.4,11.4,131.4,7.1
		 M133.6,13c9.9,3.2,11.8,10.7,12.1,14.8C141.7,26.7,134.7,23.4,133.6,13 M158.5,15.8c0,0-4.2,0.8-5.7,7.2c-1.4,6.9,2.1,8.8,2.1,8.8
		s4-0.2,5.7-7C162,18.3,158.5,15.8,158.5,15.8"/>
	<path class="st6" d="M313.6,83.5V61.2h-22.3v-9.9H268v-9.2h-10l-4.9,4.6v-4.6l-7.4-5.3v-9.9h-22.3v9.9h-14.9v14l-17.6-4.7l-18.8,5
		l-12.9-3.5V36.8h-14.9v5h0v1.9L130.7,40l-42,11.3H56.9v9.9H34.6v22.3H10.8v5h46.1v-9.9h234.4v9.9h46.1v-5H313.6z M215.9,41.8h7.4
		v19.4h-7.4V41.8z M69.2,73.6H49.4v9.9H42V66.1h22.3v-9.9h25l41.4-11.1l9,2.4l9.6,2.6v-8.4h5v9.7l2.7,0.7v0l15.2,4.1l18.8-5
		l17.6,4.7v5.3H69.2V73.6z M269,73.6H76.7v-7.4h154.1V31.9h7.4v6.1l7.4,5.2v23H269V73.6z M306.2,83.5h-7.4v-9.9h-22.3V61.2H253v-7.5
		l7.5-7.1v9.7h23.4v9.9h22.3V83.5z"/>
</g>
<polyline class="st8" points="1269.9,-612.9 448.3,137.2 -393.6,137.2 "/>
</svg>
