<?xml version="1.0" encoding="utf-8"?>
<!-- Generator: Adobe Illustrator 19.1.0, SVG Export Plug-In . SVG Version: 6.00 Build 0)  -->
<svg version="1.1" id="Layer_1" xmlns="http://www.w3.org/2000/svg" xmlns:xlink="http://www.w3.org/1999/xlink" x="0px" y="0px"
	 viewBox="0 0 94 72.2" style="enable-background:new 0 0 94 72.2;" xml:space="preserve">
<style type="text/css">
	.st0{fill:#043673;}
	.st1{fill:#FFFFFF;}
	.st2{clip-path:url(#SVGID_2_);fill:#FFFFFF;}
	.st3{clip-path:url(#SVGID_2_);fill:#96CA4F;}
	.st4{clip-path:url(#SVGID_2_);fill:#043673;}
	.st5{fill:#203A70;}
	.st6{display:none;}
	.st7{display:inline;}
	.st8{fill:none;stroke:#203A70;stroke-width:3;stroke-miterlimit:10;}
	.st9{fill:none;stroke:#FFFFFF;stroke-width:3;stroke-miterlimit:10;}
	.st10{fill:#181617;}
	.st11{fill:#D8D4B3;}
	.st12{fill:none;stroke:#D8D4B3;stroke-width:2;stroke-miterlimit:10;}
	.st13{fill:#545554;}
	.st14{display:inline;fill:#D8D4B3;}
	.st15{fill:none;stroke:#D8D4B3;stroke-width:3;stroke-miterlimit:10;}
</style>
<g id="Layer_1_19_">
	<g>
		<circle class="st13" cx="46.3" cy="38.5" r="28.8"/>
		<g class="st6">
			<path class="st14" d="M46.3,10.5c15.5,0,28,12.5,28,28s-12.5,28-28,28s-28-12.5-28-28S30.8,10.5,46.3,10.5 M46.3,8.9
				C30,8.9,16.8,22.2,16.8,38.5S30,68.1,46.3,68.1s29.6-13.3,29.6-29.6S62.6,8.9,46.3,8.9L46.3,8.9z"/>
		</g>
	</g>
	<g class="st6">
		<g class="st7">
			<path class="st12" d="M30.6,42.6h9.1c1.6,0,2.9,1.3,2.9,2.9v9.1"/>
			<path class="st12" d="M42.4,22.2v9.1c0,1.6-1.3,2.9-2.9,2.9h-9.1"/>
			<path class="st12" d="M62.3,34h-9.1c-1.6,0-2.9-1.3-2.9-2.9v-9.1"/>
			<path class="st12" d="M50.5,54.4v-9.1c0-1.6,1.3-2.9,2.9-2.9h9.1"/>
		</g>
	</g>
</g>
<g>
	<g>
		<path class="st11" d="M46.3,53.1c-1.3,0-2.4-1.1-2.4-2.4V27.9c0-1.3,1.1-2.4,2.4-2.4c1.3,0,2.4,1.1,2.4,2.4v22.8
			C48.8,52,47.7,53.1,46.3,53.1z"/>
	</g>
</g>
<g>
	<g>
		<path class="st11" d="M32.5,39.3c0-1.3,1.1-2.4,2.4-2.4h22.8c1.3,0,2.4,1.1,2.4,2.4c0,1.3-1.1,2.4-2.4,2.4H34.9
			C33.6,41.7,32.5,40.6,32.5,39.3z"/>
	</g>
</g>
</svg>
